<?xml version="1.0" encoding="UTF-8"?>
<svg width="52px" height="60px" viewBox="0 0 52 60" version="1.1" xmlns="http://www.w3.org/2000/svg" xmlns:xlink="http://www.w3.org/1999/xlink">
    <!-- Generator: Sketch 50.2 (55047) - http://www.bohemiancoding.com/sketch -->
    <title>moe-icon</title>
    <desc>Created with Sketch.</desc>
    <defs></defs>
    <g id="Page-1" stroke="none" stroke-width="1" fill="none" fill-rule="evenodd">
        <g id="moe-icon" fill="#00447F" fill-rule="nonzero">
            <path d="M0.6181875,58.3912313 C0.6166875,57.7008563 1.1210625,56.3645813 1.738875,55.4217187 C2.590125,54.1225126 2.7448125,52.8549563 2.377875,50.1866437 C2.1114375,48.2502187 2.1118125,45.3744563 2.3784375,43.7960437 C2.83575,41.0898187 3.64725,40.28475 6.592125,39.6162187 C7.439625,39.4238063 12.5724374,36.833625 12.5596874,36.6048 C12.5596874,36.515925 11.9218125,34.4375813 11.1534375,31.9861313 C9.36468745,26.280225 9.20981245,15.3073313 10.8684375,11.8119938 C12.7449374,7.8575625 18.9061874,2.6022375 23.13975,1.344975 C27.9200624,-0.07456875 30.510375,-0.05559375 36.7258124,1.4445375 C41.46225,2.58763126 43.3175624,3.5328375 45.174375,5.74850626 C45.6105,6.268725 46.6895624,7.480125 47.5725,8.44051876 C52.38975,13.680225 52.363875,28.5654187 47.52375,36.4432876 C45.50475,39.7298437 44.9210624,42.2432626 44.727375,48.486975 C44.6805,49.9795313 45.3950624,51.6162 46.948125,53.5769813 C49.22175,56.4476437 49.584375,58.5587063 47.900625,59.1194063 C47.4170624,59.2802813 47.021625,59.0580937 47.021625,58.6254187 C47.021625,58.1927813 46.114125,56.2497376 45.004875,54.3075563 C43.310625,51.3409126 42.9275624,51.0078 42.6095624,52.2240563 C42.40125,53.0203126 42.4839374,53.5152 42.7933124,53.3238187 C43.1030624,53.1324376 43.8645,54.2458126 44.4856874,55.7980126 C45.789375,59.0564437 45.825375,59.29485 45.0133124,59.29485 C44.6825624,59.29485 44.0821874,58.266525 43.678875,57.0096937 L42.9459374,54.7245376 L42.8746874,57.0096937 C42.7921874,59.6328376 41.5725,60.1731187 41.5725,57.5864626 C41.5725,55.0101563 38.8164374,51.0759187 36.428625,50.2435313 C35.038125,49.7587687 34.0554374,48.7718626 33.5664374,47.3688376 C32.9540624,45.6123563 32.4361874,45.23235 30.655125,45.23235 C28.20075,45.23235 23.8185,43.8127126 23.8185,43.0176 C23.8185,42.7283063 24.91575,42.9501 26.2569374,43.510425 C29.794125,44.9884126 30.9425624,44.7017626 27.9069374,43.0984687 C26.4819374,42.34575 25.1055,41.3894626 24.84825,40.9734 C24.0255,39.641925 25.171125,39.3409126 26.4965624,40.5403687 C28.91025,42.7247813 31.9505624,43.3554563 33.9024374,42.0766313 C36.0388124,40.6768126 36.981375,38.7603376 35.2085624,39.4210687 C34.551375,39.6659437 33.599625,40.4419687 33.093375,41.1455437 C32.3716874,42.1483876 31.878,42.2669813 30.808125,41.6944687 C28.9685624,40.7099063 29.07225,39.6419437 30.96,40.1355 C31.9989374,40.40715 32.317875,40.27575 31.97325,39.7181063 C31.6966874,39.2704687 30.8296874,38.904225 30.046875,38.904225 C29.2115624,38.904225 28.751625,38.5410937 28.9336874,38.0253187 C29.2813124,37.0394437 29.9115,37.0429687 34.2084374,38.0549437 C37.126875,38.7422813 37.2470624,38.7013313 38.30325,36.6589313 C39.565125,34.2186376 39.126,33.1344 37.761,35.3201437 C36.426,37.457625 31.55325,37.1658563 31.55325,34.948425 C31.55325,34.2237376 32.0754374,34.0785 33.4869374,34.4106937 C34.55025,34.6610063 35.7185624,34.904325 36.0830624,34.951425 C36.4475624,34.9984876 36.984375,33.4691626 37.2759374,31.5528376 C37.6074374,29.3739 38.3308124,27.6617626 39.2068124,26.982525 C40.5020624,25.9781626 40.5315,25.7187563 39.5979374,23.5352813 C38.8215,21.71925 38.304,21.2888437 37.356,21.6709687 C36.6781874,21.9442313 34.8579374,22.3144687 33.3110624,22.4937187 C28.1064374,23.0968126 27.3433124,23.4524437 25.6025624,26.0852813 C24.648375,27.5282813 23.0505,31.8729937 22.0516874,35.7401813 C20.0128124,43.6334813 19.08375,44.92005 13.2538124,47.9215687 C9.223875,49.9964626 7.710375,52.0493813 6.9855,56.4246187 C6.7665,57.7463813 6.144,58.9755563 5.6023125,59.1561187 C4.8125625,59.41935 4.7053125,58.8431063 5.0608125,56.2493063 C5.661375,51.8676 7.739625,47.668275 9.2475,47.7897 C9.90581245,47.8427626 10.280625,47.621325 10.08075,47.2976437 C9.621375,46.5544876 12.1550624,45.159 13.396875,45.4712063 C13.9081874,45.5998313 14.07,45.5658937 13.7563124,45.3958313 C13.442625,45.2257687 13.6250624,44.5656937 14.1624374,43.9290376 C14.99775,42.9385687 16.787625,37.8993187 16.787625,36.5375626 C16.787625,36.2923876 16.4713124,36.0918 16.0845,36.0918 C15.6976874,36.0918 15.381375,37.0167376 15.381375,38.1472313 C15.381375,40.3665376 12.3811874,44.5293 10.781625,44.5293 C7.48425,44.5293 3.42825,49.6109437 3.42825,53.7423187 C3.42825,54.4572376 2.7965625,56.0781563 2.024625,57.3443437 C1.066125,58.9164187 0.62025,59.248425 0.618375,58.3912876 L0.6181875,58.3912313 Z M41.8771876,50.7255376 C41.65275,50.1646313 41.4860626,50.3312437 41.4523126,51.1503376 C41.4223126,51.8915437 41.5873126,52.3068376 41.8216876,52.0731937 C42.0553126,51.83955 42.08025,51.2331 41.8779376,50.7255376 L41.8771876,50.7255376 Z M6.525375,45.13275 C7.3355625,44.471025 8.9595,43.7464126 10.1341875,43.5224626 C12.4655626,43.0780313 14.9625,39.7606876 14.28825,38.0036626 C13.79775,36.725325 15.7494376,34.6854937 17.4628126,34.6854937 C18.9204376,34.6854937 22.2710626,32.2052437 21.6526874,31.584 C21.42825,31.3584937 19.7338124,31.6888126 17.8873124,32.3179313 C15.279375,33.20655 14.320125,33.96405 13.59,35.7117 C12.4505624,38.4386813 11.5801875,39.1764187 8.2303125,40.254825 C4.783125,41.3645813 4.156875,42.2763563 3.7824375,46.7295 C3.49725,50.121675 3.545625,50.293725 4.2586875,48.420825 C4.6951875,47.2740937 5.7151875,45.7944563 6.525375,45.13275 Z M4.7345625,44.0724187 C5.1740625,43.2171187 6.9294375,42.0777376 8.77781245,41.4479624 C10.57425,40.8358313 12.4685626,39.7757624 12.9871874,39.0922687 C13.5058126,38.408775 13.94025,38.1960187 13.952625,38.6194874 C14.001375,40.2912 10.9395,42.1708874 7.8500625,42.366075 C7.3816875,42.3957 6.31425,43.1317876 5.478,44.0019 C3.9935625,45.5465813 3.9759375,45.54825 4.7345625,44.0724 L4.7345625,44.0724187 Z M40.99725,48.5722126 C41.179125,47.7021 41.4975,44.3007187 41.7050626,41.0136187 C41.9128126,37.7265 42.280125,33.0948187 42.521625,30.7209563 C42.7876876,28.1062687 42.664125,25.8889126 42.2071876,25.0959563 C41.630625,24.0941813 41.550375,24.6342937 41.8651876,27.39795 C42.199125,30.3272626 41.9476874,31.7263313 40.5365626,34.8099187 C39.2079376,37.7120063 38.9484374,39.0198563 39.439125,40.33965 C39.79275,41.2904063 39.8720624,43.8876376 39.615375,46.111275 C39.302625,48.8235563 39.399,50.1542437 39.907875,50.1542437 C40.32525,50.1542437 40.815375,49.442325 40.9970624,48.5722126 L40.99725,48.5722126 Z M38.5348126,42.9472126 C38.5629376,41.1102937 38.268,39.6073687 37.8811876,39.6073687 C37.4769376,39.6073687 37.1990626,41.6252063 37.2275626,44.3534626 C37.2838126,49.8077063 38.4519376,48.5517376 38.5348126,42.9472126 Z M36.4749376,43.6754437 C36.4749376,41.6425126 36.3661876,41.523975 35.394375,42.4959187 C34.783125,43.1072063 34.5105,44.088675 34.7664376,44.7559687 C35.5125,46.6999876 36.4749376,46.0912876 36.4749376,43.6754437 Z M44.5261876,33.7548376 C44.7568126,32.2761937 44.6686876,31.2378187 44.329125,31.44735 C43.3081876,32.0783437 41.8666876,42.1223437 42.4846874,44.2983937 C42.959625,45.9702187 43.1338124,45.5029124 43.5781874,41.3651813 C43.8688126,38.65815 44.295375,35.2335 44.5261874,33.7548374 L44.5261876,33.7548376 Z M18.5694376,41.5409626 C20.112375,38.9898376 21.0796876,35.517075 20.369625,35.07825 C19.6243124,34.6175813 16.8534374,39.1016437 16.3605,41.5661813 C15.7798126,44.4701626 16.804875,44.4584437 18.5694376,41.5408687 L18.5694376,41.5409626 Z M47.6949376,30.6171187 C50.1658126,21.7207687 46.479375,8.4976875 40.6944376,5.5061625 C36.65925,3.41953126 25.62975,2.772825 21.4974376,4.38058126 C17.964375,5.7550875 12.7824376,11.8787812 11.8449375,15.78735 C10.9880625,19.3587376 11.4751875,29.7636187 12.499125,29.7636187 C12.7816876,29.7636187 13.72425,28.4978437 14.5936874,26.9508 C16.1548126,24.1734187 17.7200624,22.2399563 22.2868124,17.4482626 C24.051375,15.5967376 25.2009376,14.9979937 26.991375,14.9979937 C28.2945,14.9979937 29.5785,14.6454376 29.8449376,14.2145063 C30.3721876,13.3612126 34.267875,13.7004374 37.213875,14.8562063 C38.2003126,15.2432063 40.331625,17.2762876 41.950125,19.3741687 C44.8790626,23.1705937 45.4610626,25.1554313 45.57525,31.7387063 C45.625875,34.6592626 46.7355,34.0722 47.6949376,30.6171187 Z M39.2874376,31.8315 C39.2874376,31.4676 38.971125,31.1698687 38.5843126,31.1698687 C38.1975,31.1698687 37.8811876,31.6631437 37.8811876,32.26605 C37.8811876,32.8689563 38.1975,33.1666876 38.5843126,32.9276813 C38.971125,32.688675 39.2874376,32.1954 39.2874376,31.8315 Z M20.5036876,30.1942126 C21.6211876,29.9261063 22.7236876,29.0364563 23.0713126,28.1223187 C23.4061876,27.2412 24.57075,25.4621626 25.659,24.1689 C27.3286876,22.1844 27.4033126,21.9428624 26.136375,22.6208813 C25.192125,23.1261937 24.549,23.167125 24.40275,22.7311313 C24.27525,22.3499437 22.746375,23.2882126 21.0061876,24.81615 C18.6571876,26.8785937 18.177,27.60195 19.1420626,27.6242063 C19.857,27.6410813 21.36,26.6715 22.4818126,25.47045 C23.6038126,24.2694 24.5218126,23.59905 24.5218126,23.9807813 C24.5218126,25.4776687 20.182875,28.8009376 17.1796876,29.60415 C14.8520626,30.2266687 14.1193126,30.7280063 14.4140626,31.496175 C14.757,32.3898563 15.0853126,32.4052876 16.6801876,31.602675 C17.706,31.0864313 19.4265,30.4526063 20.5036876,30.194175 L20.5036876,30.1942126 Z M40.9479376,28.7089313 C40.725375,28.1288437 40.26075,27.6542437 39.915375,27.6542437 C39.57,27.6542437 39.2874376,28.1288437 39.2874376,28.7089313 C39.2874376,29.289 39.7520626,29.7636187 40.32,29.7636187 C40.9490626,29.7636187 41.1945,29.3513813 40.9479376,28.7089313 Z M16.7874376,26.379075 C16.7874376,25.4961 16.5815626,25.5483187 15.7550626,26.6409563 C14.4045,28.4265937 14.391,29.4710063 15.7325626,28.3573687 C16.3126876,27.8759437 16.78725,26.9857126 16.78725,26.379075 L16.7874376,26.379075 Z M24.293625,21.74085 C24.9991876,21.684975 26.8310626,21.205575 28.36425,20.6752687 C31.0130624,19.7591813 31.0693126,19.6805063 29.4928126,19.097325 C28.58025,18.75975 27.2386876,18.6723563 26.5115626,18.9031313 C25.7844376,19.1339063 25.2350626,19.0615687 25.2905626,18.7424437 C25.5361876,17.3297813 25.1199376,17.114025 23.6585626,17.8962376 C22.1371876,18.7104937 22.132125,18.750075 23.4823126,19.2777937 C24.8401876,19.8083063 24.8386876,19.8222563 23.4223126,19.8705 C22.624875,19.8976876 21.280125,20.8563376 20.4339376,22.0008376 C18.3579376,24.8088937 18.4981876,25.1776126 20.9525626,23.3631187 C22.08375,22.5266813 23.58675,21.7966876 24.2923126,21.7409063 L24.293625,21.74085 Z M42.839625,22.90815 C41.725125,20.99265 40.2324376,19.2167437 39.73725,19.2167437 C38.7095626,19.2167437 39.4095,20.80335 41.148,22.4143876 C43.347375,24.4526813 43.818375,24.5901937 42.839625,22.90815 Z M34.9573126,19.836975 C36.2724376,17.7312 35.1815626,16.9391626 30.422625,16.5445313 C25.7709376,16.1587687 25.591875,17.5152563 30.19725,18.2516813 C32.2693126,18.5830313 32.7991876,18.9141187 32.2725,19.5487126 C31.8834376,20.0173687 31.773375,20.6090063 32.028,20.8634626 C32.892,21.7275 34.0245,21.3306376 34.9573126,19.836975 Z M37.4720626,20.1962063 C39.4891876,19.4221687 38.7545626,17.1067313 36.145875,16.0167937 C33.3871876,14.8640813 31.9929376,14.7064126 32.5516874,15.6102937 C32.7598124,15.9470626 33.8859376,16.4137687 35.0540626,16.6474126 C37.4315626,17.1229313 37.70325,17.8880063 36.073125,19.518075 C34.9336876,20.6576063 35.5239376,20.9437687 37.4720626,20.1962063 Z M8.3499375,57.9301126 C8.3499375,57.1794937 8.69193755,56.3539687 9.11006245,56.0955937 C9.52818745,55.8372 10.4761875,54.6320063 11.2168125,53.4173626 C12.433125,51.4227376 12.563625,51.3627563 12.5660624,52.7978437 C12.5675624,53.6717437 11.935875,54.9285937 11.1624375,55.590825 C10.389,56.2530563 9.75618745,57.3573937 9.75618745,58.0448813 C9.75618745,58.7323687 9.439875,59.2948687 9.05306245,59.2948687 C8.66625,59.2948687 8.3499375,58.6807313 8.3499375,57.9301126 Z M18.6613126,57.83355 C17.9731874,57.02985 17.5134376,56.06235 17.639625,55.6835813 C17.76525,55.3048126 18.5844376,55.9623937 19.45875,57.1448813 C21.2398126,59.5539187 20.6041876,60.1027874 18.6613126,57.83355 Z M23.7804376,57.959925 C24.741,56.1654376 25.9280624,55.4265563 25.9280624,56.6232937 C25.9280624,57.1331813 25.2763124,57.9573376 24.4798126,58.4547563 C23.149875,59.2854 23.0926876,59.2450126 23.7804376,57.959925 Z M30.9609376,57.888675 C30.9609376,56.9218687 31.1203126,56.526375 31.3156874,57.0097687 C31.5106874,57.4931626 31.5106874,58.2841876 31.3156874,58.7675813 C31.1205,59.250975 30.9609376,58.8555187 30.9609376,57.888675 Z M32.9593124,57.294525 C32.9593124,56.12235 33.5908126,54.7395563 34.4848124,53.9546813 C35.9896874,52.6332937 36.002625,52.6341937 35.440125,54.0214313 C35.1264374,54.7948687 34.7205,56.2977937 34.537875,57.361275 C34.10175,59.9014126 32.9593124,59.853075 32.9593124,57.294525 Z M19.2444374,55.0718626 C17.36475,52.9947376 18.3710624,52.6680563 20.3056874,54.7273876 C21.2124374,55.6926563 21.631875,56.482425 21.23775,56.482425 C20.843625,56.482425 19.946625,55.8476813 19.2444374,55.0718626 Z M20.46375,52.2539813 C19.5853124,51.5418 19.1475,50.7854813 19.4908124,50.5732876 C20.133,50.1764063 22.867125,52.7480626 22.349625,53.26215 C22.19025,53.4198376 21.3421874,52.9661813 20.46375,52.2539813 Z M28.1068124,31.4831813 C26.7915,30.9123 25.8943124,30.2662313 26.1129374,30.047475 C26.33175,29.8287187 27.1515,29.992725 27.9345,30.4117313 C28.7176874,30.8308313 29.527125,30.9006 29.733375,30.5667937 C30.244875,29.7393187 29.4616876,29.0605687 27.9954376,29.0605687 C26.463375,29.0605687 25.6145626,27.0273376 26.935125,26.5205813 C28.868625,25.7786813 31.8871874,26.5708313 32.13675,27.8857126 C32.44275,29.4983626 31.698375,32.5854 31.0123124,32.5486687 C30.7295624,32.5336687 29.422125,32.0540626 28.1068124,31.4832 L28.1068124,31.4831813 Z M31.5530624,27.6543 C31.5530624,27.2675813 30.5851874,26.951175 29.40225,26.951175 C28.1473124,26.951175 27.432375,27.2440876 27.685875,27.6543 C27.9249376,28.0410187 28.8928126,28.357425 29.8366876,28.357425 C30.78075,28.357425 31.5530624,28.0410187 31.5530624,27.6543 Z M34.9850624,28.9068563 C35.308875,26.9543437 35.407875,26.8553063 35.6293124,28.2627376 C35.7736876,29.1774563 35.6011876,30.2157187 35.2468124,30.5699813 C34.856625,30.9600563 34.7535,30.304125 34.9850624,28.9068563 Z" id="path3519"></path>
        </g>
    </g>
</svg>
